<?xml version="1.0" encoding="UTF-8" standalone="no"?>
<svg
   height="60"
   version="1.1"
   viewBox="0 0 60 60"
   width="60"
   id="svg1"
   sodipodi:docname="1243565_outline_picasa_social_icon.svg"
   xmlns:inkscape="http://www.inkscape.org/namespaces/inkscape"
   xmlns:sodipodi="http://sodipodi.sourceforge.net/DTD/sodipodi-0.dtd"
   xmlns="http://www.w3.org/2000/svg"
   xmlns:svg="http://www.w3.org/2000/svg">
  <sodipodi:namedview
     id="namedview1"
     pagecolor="#ffffff"
     bordercolor="#000000"
     borderopacity="0.25"
     inkscape:showpageshadow="2"
     inkscape:pageopacity="0.0"
     inkscape:pagecheckerboard="0"
     inkscape:deskcolor="#d1d1d1" />
  <title
     id="title1" />
  <desc
     id="desc1" />
  <defs
     id="defs1" />
  <g
     fill="none"
     fill-rule="evenodd"
     id="Page-1"
     stroke="none"
     stroke-width="1"
     style="stroke:#ffffff;stroke-opacity:1">
    <g
       id="Picasa"
       stroke="#000000"
       stroke-width="2"
       transform="translate(1,1)"
       style="stroke:#ffffff;stroke-opacity:1">
      <path
         d="m 39.2454,22.2213 v -15.95 c -3.281,-1.489 -6.805,-2.252 -10.403,-2.252 -2.653,0 -5.266,0.451 -7.799,1.292 z"
         id="Stroke-159"
         style="stroke:#ffffff;stroke-opacity:1" />
      <path
         d="m 5.9418,39.5627 c 2.077,4.616 5.517,8.523 9.901,11.169 v -20.709 z"
         id="Stroke-160"
         style="stroke:#ffffff;stroke-opacity:1" />
      <path
         d="m 3.7078,29.2822 c 0,2.157 0.327,4.35 0.913,6.523 0.682,-0.62 21.844,-19.832 22.281,-20.227 -0.426,-0.384 -9.227,-8.365 -9.513,-8.626 -8.439,4.328 -13.681,12.86 -13.681,22.33 z"
         id="Stroke-161"
         style="stroke:#ffffff;stroke-opacity:1" />
      <path
         d="m 19.3384,52.5594 c 2.302,0.924 4.754,1.508 7.186,1.733 h 4.611 c 8.683,-0.809 16.434,-5.928 20.287,-13.869 h -32.113 z"
         id="Stroke-162"
         style="stroke:#ffffff;stroke-opacity:1" />
      <path
         d="m 52.8376,36.9571 c 0.751,-2.456 1.143,-5.162 1.143,-7.675 0,-8.389 -4.293,-16.242 -11.268,-20.878 v 28.553 z"
         id="Stroke-163"
         style="stroke:#ffffff;stroke-opacity:1" />
      <path
         d="M 54,58 H 4 C 1.791,58 0,56.209 0,54 V 4 C 0,1.791 1.791,0 4,0 h 50 c 2.209,0 4,1.791 4,4 v 50 c 0,2.209 -1.791,4 -4,4 z"
         id="Stroke-169"
         stroke-linejoin="round"
         style="stroke:#ffffff;stroke-opacity:1" />
    </g>
  </g>
</svg>
