<?xml version="1.0" encoding="UTF-8" standalone="no"?>
<svg
   height="60"
   version="1.1"
   viewBox="0 0 60 60"
   width="60"
   id="svg1"
   sodipodi:docname="1243545_blackberry_outline_social_icon.svg"
   xmlns:inkscape="http://www.inkscape.org/namespaces/inkscape"
   xmlns:sodipodi="http://sodipodi.sourceforge.net/DTD/sodipodi-0.dtd"
   xmlns="http://www.w3.org/2000/svg"
   xmlns:svg="http://www.w3.org/2000/svg">
  <sodipodi:namedview
     id="namedview1"
     pagecolor="#ffffff"
     bordercolor="#000000"
     borderopacity="0.25"
     inkscape:showpageshadow="2"
     inkscape:pageopacity="0.0"
     inkscape:pagecheckerboard="0"
     inkscape:deskcolor="#d1d1d1" />
  <title
     id="title1" />
  <desc
     id="desc1" />
  <defs
     id="defs1" />
  <g
     fill="none"
     fill-rule="evenodd"
     id="Page-1"
     stroke="none"
     stroke-width="1"
     style="fill:#000000;fill-opacity:0;stroke:#fcfcfc;stroke-opacity:1">
    <g
       id="Blackberry"
       stroke="#000000"
       stroke-width="2"
       transform="translate(1,1)"
       style="fill:#000000;fill-opacity:0;stroke:#fcfcfc;stroke-opacity:1">
      <path
         d="m 52,23.5035 c 0,-1.519 -0.927,-3.44 -4.802,-3.44 h -5.976 l -1.703,7.906 h 6.226 c 4.869,0 6.255,-2.313 6.255,-4.466 z"
         id="Stroke-61"
         style="fill:#000000;fill-opacity:0;stroke:#fcfcfc;stroke-opacity:1" />
      <path
         d="m 49.6769,35.8854 c 0,-1.519 -0.923,-3.435 -4.802,-3.435 h -5.976 l -1.699,7.901 h 6.227 c 4.868,0 6.25,-2.318 6.25,-4.466 z"
         id="Stroke-62"
         style="fill:#000000;fill-opacity:0;stroke:#fcfcfc;stroke-opacity:1" />
      <path
         d="m 37.314,16.4349 c 0,-1.519 -0.923,-3.435 -4.802,-3.435 h -5.976 l -1.699,7.901 h 6.227 c 4.864,0 6.25,-2.318 6.25,-4.466 z"
         id="Stroke-63"
         style="fill:#000000;fill-opacity:0;stroke:#fcfcfc;stroke-opacity:1" />
      <path
         d="m 35.1565,28.3248 c 0,-1.514 -0.923,-3.44 -4.802,-3.44 h -5.976 l -1.703,7.911 h 6.231 c 4.868,0 6.25,-2.323 6.25,-4.471 z"
         id="Stroke-64"
         style="fill:#000000;fill-opacity:0;stroke:#fcfcfc;stroke-opacity:1" />
      <path
         d="m 32.8429,40.7114 c 0,-1.523 -0.923,-3.449 -4.798,-3.449 h -5.98 l -1.699,7.911 h 6.227 c 4.868,0 6.25,-2.319 6.25,-4.462 z"
         id="Stroke-65"
         style="fill:#000000;fill-opacity:0;stroke:#fcfcfc;stroke-opacity:1" />
      <path
         d="m 21.2133,16.4349 c 0,-1.519 -0.923,-3.435 -4.802,-3.435 h -5.976 l -1.699,7.901 h 6.227 c 4.864,0 6.25,-2.318 6.25,-4.466 z"
         id="Stroke-66"
         style="fill:#000000;fill-opacity:0;stroke:#fcfcfc;stroke-opacity:1" />
      <path
         d="m 19.0605,28.3248 c 0,-1.514 -0.927,-3.44 -4.807,-3.44 h -5.976 l -1.698,7.911 h 6.226 c 4.864,0 6.255,-2.323 6.255,-4.471 z"
         id="Stroke-67"
         style="fill:#000000;fill-opacity:0;stroke:#fcfcfc;stroke-opacity:1" />
      <path
         d="M 54,58 H 4 C 1.791,58 0,56.209 0,54 V 4 C 0,1.791 1.791,0 4,0 h 50 c 2.209,0 4,1.791 4,4 v 50 c 0,2.209 -1.791,4 -4,4 z"
         id="Stroke-102"
         stroke-linejoin="round"
         style="fill:#000000;fill-opacity:0;stroke:#fcfcfc;stroke-opacity:1" />
    </g>
  </g>
</svg>
